<svg
    width="24"
    height="24"
    viewBox="0 0 24 24"
    fill="none"
    xmlns="http://www.w3.org/2000/svg"
    >
<path d="M1.66 7.50907C1.75568 7.79864 1.87964 8.07643 2.02691 8.33962L1.25569 9.0674C1.04859 9.26274 1.04859 9.57979 1.25569 9.77553L2.61507 11.058C2.71407 11.1514 2.84971 11.204 2.99109 11.204C3.13091 11.204 3.26564 11.1514 3.36635 11.058L4.13671 10.3303C4.25232 10.388 4.38046 10.4233 4.50019 10.4731C4.50019 10.4648 4.49934 10.4562 4.49934 10.4479C4.49934 9.85319 4.57177 9.29214 4.70071 8.76531C3.77061 8.20072 3.14998 7.22072 3.14998 6.10181C3.14998 4.354 4.65743 2.93184 6.51014 2.93184C7.76468 2.93184 8.84784 3.59055 9.42603 4.55293C10.0433 4.48072 10.6232 4.48072 11.3212 4.60512C11.2314 4.34895 11.1257 4.09824 10.9934 3.86324L11.7646 3.13511C11.8652 3.04133 11.921 2.9138 11.921 2.78122C11.921 2.64859 11.8652 2.52111 11.7646 2.42733L10.406 1.14563C10.3021 1.04756 10.1664 0.998905 10.0309 0.998905C9.89521 0.998905 9.75962 1.04756 9.65644 1.14563L8.88277 1.87377C8.60328 1.73411 8.3096 1.6172 8.00184 1.52893V0.500211C8.00184 0.224034 7.76553 0 7.47185 0H5.54928C5.25727 0 5.01844 0.224034 5.01844 0.500211V1.52888C4.71148 1.61715 4.41775 1.73406 4.13741 1.87372L3.36635 1.14639C3.26232 1.04832 3.12673 0.999663 2.99109 0.999663C2.8555 0.999663 2.7191 1.04832 2.61593 1.14599L1.25569 2.42769C1.15669 2.52187 1.10098 2.64894 1.10098 2.78198C1.10098 2.91496 1.15669 3.04209 1.25569 3.13587L2.02691 3.8636C1.87959 4.12724 1.75568 4.40463 1.66171 4.69415H0.571855C0.278176 4.69415 0.0410156 4.91853 0.0410156 5.19512V7.00845C0.0410156 7.28423 0.278176 7.50907 0.571855 7.50907H1.66Z" fill="white"/>
<path d="M23.9883 13.975C23.9883 13.6764 23.7312 13.4347 23.4159 13.4347H22.2396C22.138 13.122 22.0033 12.8223 21.8436 12.5379L22.6763 11.7525C22.7845 11.6512 22.8443 11.514 22.8443 11.3708C22.8443 11.2275 22.7844 11.0902 22.6763 10.9886L21.2104 9.60569C21.099 9.50009 20.9517 9.44713 20.8053 9.44713C20.6589 9.44713 20.5125 9.50009 20.401 9.60569L19.5666 10.3915C19.2654 10.2408 18.9485 10.1145 18.6157 10.0191V8.90969C18.6157 8.61153 18.3602 8.36981 18.0441 8.36981H15.9701C15.8312 8.36981 15.7089 8.42236 15.6091 8.50007C15.7838 9.10108 15.8795 9.75277 15.8795 10.448C15.8795 10.8893 15.8429 11.3374 15.7747 11.783C16.1606 11.6488 16.5716 11.5645 17.0068 11.5645C18.9884 11.5645 20.6006 13.0848 20.6006 14.9533C20.6006 16.1476 19.9393 17.1943 18.9468 17.7981C19.6689 18.5451 20.243 19.4313 20.6165 20.4243C20.678 20.4443 20.7421 20.4588 20.8061 20.4588C20.9526 20.4588 21.099 20.4063 21.2113 20.3007L22.678 18.9177C22.7854 18.8165 22.8444 18.6792 22.8444 18.536C22.8444 18.3928 22.7854 18.2555 22.678 18.1539L21.8436 17.3681C22.0034 17.0841 22.1381 16.7843 22.2397 16.4713H23.4159C23.5673 16.4713 23.7146 16.4148 23.8211 16.3127C23.9285 16.2118 23.9892 16.0742 23.9892 15.931L23.9883 13.975Z" fill="white"/>
<path d="M19.4484 20.9131C18.559 18.445 16.2089 16.7475 13.496 16.5164C12.5875 17.4238 11.4627 17.9994 10.1889 17.9994C8.91613 17.9994 7.79049 17.4238 6.88288 16.5164C4.16831 16.7475 1.81808 18.445 0.928686 20.9135L0.437061 22.2784C0.296436 22.6711 0.363775 23.1039 0.620061 23.4408C0.876293 23.7779 1.28895 23.978 1.72819 23.978H18.6489C19.089 23.978 19.5016 23.7779 19.7579 23.4408C20.0133 23.1039 20.0815 22.6711 19.9401 22.2784L19.4484 20.9131Z" fill="white"/>
<path d="M5.77722 10.4479C5.77722 13.5092 7.7531 16.7942 10.1889 16.7942C12.6257 16.7942 14.6015 13.5092 14.6015 10.4479C14.6016 4.10211 5.77722 4.08953 5.77722 10.4479Z"
fill="white"/>
</svg>
