<svg width="24" height="24" viewBox="0 0 24 24" fill="none" xmlns="http://www.w3.org/2000/svg">
<path d="M4.13794 19.0345H5.79311V21.5172H4.13794V19.0345Z" fill="white"/>
<path d="M13.2413 19.0345H14.8965V21.5172H13.2413V19.0345Z" fill="white"/>
<path d="M14.8966 22.3448H4.13799C3.45357 22.3448 2.89661 22.9018 2.89661 23.5862C2.89661 23.8142 3.08199 24 3.3104 24H15.7242C15.9526 24 16.138 23.8142 16.138 23.5862C16.138 22.9018 15.581 22.3448 14.8966 22.3448Z" fill="white"/>
<path d="M1.65515 5.79309H4.9655V13.2414H1.65515V5.79309Z" fill="white"/>
<path d="M1.65515 14.8965H17.3793V14.069H13.0283C12.2549 14.069 11.5274 13.7677 10.98 13.2207L10.5873 12.8276H9.93101C9.93101 13.512 9.37405 14.069 8.68963 14.069H1.65515V14.8965Z" fill="white"/>
<path d="M5.79309 5.79309H6.62068V13.2414H5.79309V5.79309Z" fill="white"/>
<path d="M23.1724 1.65515H23.9999V8.27584H23.1724V1.65515Z" fill="white"/>
<path d="M19.8621 8.27585H20.2759C20.5043 8.27585 20.6897 8.09006 20.6897 7.86206C20.6897 7.63406 20.5043 7.44826 20.2759 7.44826H16.5517C15.473 7.44826 14.5556 6.75599 14.2138 5.79309H13.2414C12.7965 5.79309 12.3554 5.93999 12.0004 6.20688L10.8964 7.03447H9.93103V12H10.9299L11.5651 12.6356C11.9565 13.0262 12.4759 13.2414 13.0283 13.2414H19.0345C19.2629 13.2414 19.4483 13.0556 19.4483 12.8276C19.4483 12.5996 19.2629 12.4138 19.0345 12.4138H16.9655V11.5862H19.0345H19.4483C19.6767 11.5862 19.8621 11.4004 19.8621 11.1724C19.8621 10.9444 19.6767 10.7586 19.4483 10.7586H16.9655V9.93102H19.4483H19.8621C20.0905 9.93102 20.2759 9.74523 20.2759 9.51723C20.2759 9.28923 20.0905 9.10344 19.8621 9.10344H16.9655V8.27585H19.8621Z" fill="white"/>
<path d="M16.5518 6.62071V3.31036C15.639 3.31036 14.8966 4.05271 14.8966 4.96554C14.8966 5.87836 15.639 6.62071 16.5518 6.62071Z" fill="white"/>
<path fill-rule="evenodd" clip-rule="evenodd" d="M17.3389 2.48106C17.3233 2.4819 17.3078 2.48274 17.292 2.48274H16.5517C15.1825 2.48274 14.0689 3.59625 14.0689 4.9655H13.2414C12.6182 4.9655 12.0012 5.17157 11.5038 5.54481L10.6208 6.20688H9.93101C9.93101 5.52246 9.37405 4.9655 8.68963 4.9655H1.65515V1.65515H17.3793V2.47943C17.3657 2.47962 17.3523 2.48034 17.3389 2.48106ZM2.48274 3.31032H3.31032V2.48274H2.48274V3.31032ZM4.9655 3.31032H4.13791V2.48274H4.9655V3.31032ZM5.79308 3.31032H6.62067V2.48274H5.79308V3.31032Z" fill="white"/>
<path d="M7.44824 5.79309V13.2414H8.68962C8.91804 13.2414 9.10341 13.0556 9.10341 12.8276V6.20688C9.10341 5.97888 8.91804 5.79309 8.68962 5.79309H7.44824Z" fill="white"/>
<path fill-rule="evenodd" clip-rule="evenodd" d="M19.0345 14.069V16.9655C19.0345 17.6499 18.4775 18.2069 17.7931 18.2069H1.24138C0.556965 18.2069 0 17.6499 0 16.9655V1.24138C0 0.556965 0.556965 0 1.24138 0H17.7931C18.4775 0 19.0345 0.556965 19.0345 1.24138V2.31517C18.761 2.36607 18.4854 2.40621 18.2069 2.4331V1.65517C18.2069 1.19876 17.8357 0.827586 17.3793 0.827586H1.65517C1.19876 0.827586 0.827586 1.19876 0.827586 1.65517V14.8966C0.827586 15.353 1.19876 15.7241 1.65517 15.7241H17.3793C17.8357 15.7241 18.2069 15.353 18.2069 14.8966V14.069H19.0345ZM13.2414 17.3793H14.069V16.5517H13.2414V17.3793ZM15.7241 17.3793H14.8966V16.5517H15.7241V17.3793ZM16.5517 17.3793H17.3793V16.5517H16.5517V17.3793Z" fill="white"/>
<path d="M21.4655 7.50706C21.7663 7.64113 22.058 7.79423 22.3448 7.95644V1.97754C20.8303 2.83533 19.1304 3.29257 17.3793 3.30706V6.62071H20.2758C20.8369 6.62071 21.3124 6.99478 21.4655 7.50706Z" fill="white"/>
</svg>
