<svg width="24" height="24" viewBox="0 0 24 24" fill="none" xmlns="http://www.w3.org/2000/svg">
<path fill-rule="evenodd" clip-rule="evenodd" d="M24 0.444444V2.66667H0V0.444444C0.000265708 0.199099 0.191988 0.000275549 0.428571 0H23.5714C23.808 0.000275549 23.9997 0.199099 24 0.444444ZM24 3.55556H0V23.5556C0.000265708 23.8009 0.191988 23.9997 0.428571 24H23.5714C23.808 23.9997 23.9997 23.8009 24 23.5556V3.55556ZM7.28571 12.4444H16.7143V11.5556H7.28571V12.4444ZM14.1429 20.8889C14.142 20.1529 13.5669 19.5564 12.8571 19.5556H11.1429C10.4328 19.5556 9.85714 20.1525 9.85714 20.8889C9.85714 21.6253 10.4328 22.2222 11.1429 22.2222H12.8571C13.5669 22.2214 14.142 21.6249 14.1429 20.8889ZM9.85714 6.22222C9.62045 6.22222 9.42857 6.02324 9.42857 5.77778C9.42857 5.53232 9.62045 5.33333 9.85714 5.33333H14.1429C14.3796 5.33333 14.5714 5.53232 14.5714 5.77778C14.5714 6.02324 14.3796 6.22222 14.1429 6.22222H9.85714ZM6.42857 9.33333C6.42857 9.57879 6.62045 9.77778 6.85714 9.77778H17.1429C17.3796 9.77778 17.5714 9.57879 17.5714 9.33333V7.55556C17.5714 7.3101 17.3796 7.11111 17.1429 7.11111H6.85714C6.62045 7.11111 6.42857 7.3101 6.42857 7.55556V9.33333ZM6.85714 13.3333C6.62045 13.3333 6.42857 13.1343 6.42857 12.8889V11.1111C6.42857 10.8657 6.62045 10.6667 6.85714 10.6667H17.1429C17.3796 10.6667 17.5714 10.8657 17.5714 11.1111V12.8889C17.5714 13.1343 17.3796 13.3333 17.1429 13.3333H6.85714ZM6.42857 18.2222C6.42857 18.4677 6.62045 18.6667 6.85714 18.6667H17.1429C17.3796 18.6667 17.5714 18.4677 17.5714 18.2222V14.6667C17.5714 14.4212 17.3796 14.2222 17.1429 14.2222H6.85714C6.62045 14.2222 6.42857 14.4212 6.42857 14.6667V18.2222ZM7.28571 15.1111H16.7143V17.7778H7.28571V15.1111ZM1.28571 0.888889C1.52241 0.888889 1.71429 1.08787 1.71429 1.33333C1.71429 1.57879 1.52241 1.77778 1.28571 1.77778C1.04902 1.77778 0.857143 1.57879 0.857143 1.33333C0.857143 1.08787 1.04902 0.888889 1.28571 0.888889ZM3.42857 1.33333C3.42857 1.08787 3.23669 0.888889 3 0.888889C2.76331 0.888889 2.57143 1.08787 2.57143 1.33333C2.57143 1.57879 2.76331 1.77778 3 1.77778C3.23669 1.77778 3.42857 1.57879 3.42857 1.33333ZM4.71429 0.888889C4.95098 0.888889 5.14286 1.08787 5.14286 1.33333C5.14286 1.57879 4.95098 1.77778 4.71429 1.77778C4.47759 1.77778 4.28571 1.57879 4.28571 1.33333C4.28571 1.08787 4.47759 0.888889 4.71429 0.888889ZM16.7143 8H7.28571V8.88889H16.7143V8ZM11.1429 20.4444H12.8571C13.0938 20.4444 13.2857 20.6434 13.2857 20.8889C13.2857 21.1343 13.0938 21.3333 12.8571 21.3333H11.1429C10.9062 21.3333 10.7143 21.1343 10.7143 20.8889C10.7143 20.6434 10.9062 20.4444 11.1429 20.4444Z" fill="white"/>
</svg>
