<svg width="24" height="24" viewBox="0 0 24 24" fill="none" xmlns="http://www.w3.org/2000/svg">
<path fill-rule="evenodd" clip-rule="evenodd" d="M16.1379 7.4483C13.6283 7.4483 11.5862 9.4904 11.5862 12C11.5862 14.5097 13.6283 16.5518 16.1379 16.5518C18.6475 16.5518 20.6896 14.5097 20.6896 12C20.6896 9.4904 18.6475 7.4483 16.1379 7.4483ZM13.2414 11.5862H14.0689V12.4138H13.2414V11.5862ZM13.2414 13.2414V14.069H19.0345V13.2414H13.2414ZM14.8965 11.5862H15.7241V12.4138H14.8965V11.5862ZM17.3793 11.5862H16.5517V12.4138H17.3793V11.5862ZM19.0345 12.4138H18.2069V11.5862H19.0345V12.4138ZM13.2414 10.7586H19.0345V9.93106H13.2414V10.7586Z" fill="white"/>
<path d="M8.0332 18.2067L8.68945 17.5502L10.5871 19.4479L9.93063 20.1041L8.0332 18.2067Z" fill="white"/>
<path fill-rule="evenodd" clip-rule="evenodd" d="M9.93103 12C9.93103 8.57751 12.7154 5.79309 16.1379 5.79309C19.5604 5.79309 22.3448 8.57751 22.3448 12C22.3448 15.4225 19.5604 18.2069 16.1379 18.2069C12.7154 18.2069 9.93103 15.4225 9.93103 12ZM10.7586 12C10.7586 14.966 13.1719 17.3793 16.1379 17.3793C19.104 17.3793 21.5172 14.966 21.5172 12C21.5172 9.03393 19.104 6.62068 16.1379 6.62068C13.1719 6.62068 10.7586 9.03393 10.7586 12Z" fill="white"/>
<path fill-rule="evenodd" clip-rule="evenodd" d="M4.13794 22.6584C4.13794 22.3002 4.27735 21.963 4.53072 21.7096L7.44828 18.7921L9.34591 20.6897L6.42835 23.6072C6.17498 23.8606 5.83776 24 5.47953 24C4.73964 24 4.13794 23.3983 4.13794 22.6584ZM4.96553 22.7586C4.96553 22.987 5.15101 23.1724 5.37932 23.1724C5.60763 23.1724 5.79311 22.987 5.79311 22.7586C5.79311 22.5303 5.60763 22.3449 5.37932 22.3449C5.15101 22.3449 4.96553 22.5303 4.96553 22.7586Z" fill="white"/>
<path fill-rule="evenodd" clip-rule="evenodd" d="M9.73485 14.8966H0V3.31036H24V14.8966H22.541C22.9427 14.0118 23.1724 13.0333 23.1724 12C23.1724 8.12111 20.0168 4.96554 16.1379 4.96554C12.259 4.96554 9.10345 8.12111 9.10345 12C9.10345 13.0333 9.33318 14.0118 9.73485 14.8966ZM1.65517 4.13795H0.827586V10.7586H9.10345V9.93105H8.27586V4.96554H7.44828V9.93105H6.62069V5.79312H5.7931V9.93105H4.96552V6.62071H4.13793V9.93105H3.31034V7.4483H2.48276V9.93105H1.65517V4.13795Z" fill="white"/>
<path fill-rule="evenodd" clip-rule="evenodd" d="M0 2.48276V0H24V2.48276H0ZM0.827586 1.65517H1.65517V0.827586H0.827586V1.65517ZM3.31034 1.65517H2.48276V0.827586H3.31034V1.65517ZM4.13793 1.65517H4.96552V0.827586H4.13793V1.65517Z" fill="white"/>
<path d="M10.6623 16.4056L9.6886 17.3793L10.7586 18.4493L11.7323 17.4757C11.3383 17.1583 10.9797 16.7996 10.6623 16.4056V16.4056Z" fill="white"/>
</svg>
