<svg width="22" height="24" viewBox="0 0 24 24" fill="none" xmlns="http://www.w3.org/2000/svg">
<path d="M15.2958 2.88385C12.1258 2.88385 9.54626 5.46334 9.54626 8.6334C9.54626 11.8035 12.1258 14.3829 15.2958 14.3829C18.4659 14.3829 21.0454 11.8035 21.0454 8.6334C21.0454 5.46334 18.4659 2.88385 15.2958 2.88385Z" fill="white"/>
<path d="M5.05823 16.4734L5.88717 15.6442L8.28418 18.0412L7.45498 18.8702L5.05823 16.4734Z" fill="white"/>
<path fill-rule="evenodd" clip-rule="evenodd" d="M7.45557 8.63338C7.45557 4.31025 10.9727 0.793091 15.2959 0.793091C19.619 0.793091 23.1361 4.31025 23.1361 8.63338C23.1361 12.9565 19.619 16.4737 15.2959 16.4737C10.9727 16.4737 7.45557 12.9565 7.45557 8.63338ZM8.50094 8.63338C8.50094 12.38 11.5493 15.4283 15.2959 15.4283C19.0425 15.4283 22.0908 12.38 22.0908 8.63338C22.0908 4.88678 19.0425 1.83846 15.2959 1.83846C11.5493 1.83846 8.50094 4.88678 8.50094 8.63338Z" fill="white"/>
<path fill-rule="evenodd" clip-rule="evenodd" d="M0.137939 22.0966C0.137939 21.6441 0.31404 21.2182 0.634083 20.8981L4.31943 17.2128L6.71643 19.6098L3.03109 23.2951C2.71105 23.6152 2.28509 23.7913 1.83259 23.7913C0.897978 23.7913 0.137939 23.0312 0.137939 22.0966ZM1.18331 22.2232C1.18331 22.5116 1.4176 22.7459 1.706 22.7459C1.99439 22.7459 2.22868 22.5116 2.22868 22.2232C2.22868 21.9348 1.99439 21.7005 1.706 21.7005C1.4176 21.7005 1.18331 21.9348 1.18331 22.2232Z" fill="white"/>
<path d="M8.37919 14.1984L7.14929 15.4283L8.50093 16.78L9.73082 15.5501C9.23315 15.1491 8.78013 14.6961 8.37919 14.1984V14.1984Z" fill="white"/>
</svg>
