<svg width="24" height="24" viewBox="0 0 24 24" fill="none" xmlns="http://www.w3.org/2000/svg">
<path fill-rule="evenodd" clip-rule="evenodd" d="M0 0V5.64706H23.1016V0H0ZM9.24064 3.52941H3.08021V2.11765H9.24064V3.52941ZM12.3209 3.52941H13.861V2.11765H12.3209V3.52941ZM16.9412 3.52941H15.4011V2.11765H16.9412V3.52941ZM18.4813 3.52941H20.0214V2.11765H18.4813V3.52941Z" fill="white"/>
<path fill-rule="evenodd" clip-rule="evenodd" d="M0 11.2941H23.1016V7.05884H0V11.2941ZM18.4813 8.4706H20.0214V9.88237H18.4813V8.4706ZM16.9412 8.4706H15.4011V9.88237H16.9412V8.4706ZM12.3209 8.4706H13.861V9.88237H12.3209V8.4706ZM9.24064 8.4706H3.08021V9.88237H9.24064V8.4706Z" fill="white"/>
<path fill-rule="evenodd" clip-rule="evenodd" d="M0 18.3529H10.7807V19.8861C10.1255 20.0991 9.60549 20.5758 9.37309 21.1765H1.54011V22.5882H9.37309C9.69097 23.4098 10.5469 24 11.5508 24C12.5547 24 13.4106 23.4098 13.7285 22.5882H21.5615V21.1765H13.7285C13.4961 20.5758 12.9761 20.0992 12.3209 19.8861V18.3529H23.1016V12.7059H0V18.3529ZM18.4813 14.8235H20.0214V16.2353H18.4813V14.8235ZM16.9412 14.8235H15.4011V16.2353H16.9412V14.8235ZM12.3209 14.8235H13.861V16.2353H12.3209V14.8235ZM9.24064 14.8235H3.08021V16.2353H9.24064V14.8235Z" fill="white"/>
</svg>
