<svg width="24" height="24" viewBox="0 0 24 24" fill="none" xmlns="http://www.w3.org/2000/svg">
<path fill-rule="evenodd" clip-rule="evenodd" d="M19.2 2.4H18V0H15.6V2.4H6V0H3.6V2.4H2.4C1.07452 2.4 0 3.47452 0 4.8V21.6C0 22.9255 1.07452 24 2.4 24H8.4V21.6H2.4V8.4H19.2V9.6H21.6V4.8C21.6 3.47452 20.5255 2.4 19.2 2.4ZM23.44 14.82L22.24 16.02L19.78 13.62L20.98 12.42C21.22 12.168 21.628 12.156 21.904 12.42L23.44 13.956C23.668 14.196 23.668 14.58 23.44 14.82ZM19.084 14.256L11.8 21.528V24H14.272L21.544 16.656L19.084 14.256Z" fill="white"/>
</svg>
