<svg width="24" height="24" viewBox="0 0 24 24" fill="none" xmlns="http://www.w3.org/2000/svg">
<path d="M6.01776 19.0548H8.3255C8.51666 19.0548 8.67163 18.8974 8.67163 18.7032V15.8673C8.67163 15.6732 8.51666 15.5157 8.3255 15.5157H6.01776C5.82661 15.5157 5.67163 15.6732 5.67163 15.8673V18.7032C5.67163 18.8974 5.82661 19.0548 6.01776 19.0548Z" fill="white"/>
<path d="M11.0178 14.1095H13.3255C13.5167 14.1095 13.6716 13.952 13.6716 13.7579V10.922C13.6716 10.7278 13.5167 10.5704 13.3255 10.5704H11.0178C10.8266 10.5704 10.6716 10.7278 10.6716 10.922V13.7579C10.6716 13.952 10.8266 14.1095 11.0178 14.1095Z" fill="white"/>
<path d="M6.01776 14.1095H8.3255C8.51666 14.1095 8.67163 13.952 8.67163 13.7579V10.922C8.67163 10.7278 8.51666 10.5704 8.3255 10.5704H6.01776C5.82661 10.5704 5.67163 10.7278 5.67163 10.922V13.7579C5.67163 13.952 5.82661 14.1095 6.01776 14.1095Z" fill="white"/>
<path d="M5.67163 23.2969V23.6485C5.67163 23.8426 5.82661 24 6.01776 24H8.3255C8.51666 24 8.67163 23.8426 8.67163 23.6485V20.8126C8.67163 20.6184 8.51666 20.461 8.3255 20.461H6.01776C5.82661 20.461 5.67163 20.6184 5.67163 20.8126V23.2969Z" fill="white"/>
<path d="M21.0178 14.1095H23.3255C23.5167 14.1095 23.6716 13.952 23.6716 13.7579V10.922C23.6716 10.7278 23.5167 10.5704 23.3255 10.5704H21.0178C20.8266 10.5704 20.6716 10.7278 20.6716 10.922V13.7579C20.6716 13.952 20.8266 14.1095 21.0178 14.1095Z" fill="white"/>
<path d="M22.9002 0H5.67163V2.75001C5.67163 2.88807 5.84432 3 6.05733 3H23.2859C23.4989 3 23.6716 2.88807 23.6716 2.75001V0.499978C23.6716 0.223857 23.3263 0 22.9002 0Z" fill="white"/>
<path d="M21.0178 9.1642H23.3255C23.5167 9.1642 23.6716 9.00679 23.6716 8.81264V5.97675C23.6716 5.78259 23.5167 5.62518 23.3255 5.62518H21.0178C20.8266 5.62518 20.6716 5.78259 20.6716 5.97675V8.81264C20.6716 9.00679 20.8266 9.1642 21.0178 9.1642Z" fill="white"/>
<path d="M11.0178 9.1642H13.3255C13.5167 9.1642 13.6716 9.00679 13.6716 8.81264V5.97675C13.6716 5.78259 13.5167 5.62518 13.3255 5.62518H11.0178C10.8266 5.62518 10.6716 5.78259 10.6716 5.97675V8.81264C10.6716 9.00679 10.8266 9.1642 11.0178 9.1642Z" fill="white"/>
<path d="M21.0178 19.0548H23.3255C23.5167 19.0548 23.6716 18.8974 23.6716 18.7032V15.8673C23.6716 15.6732 23.5167 15.5157 23.3255 15.5157H21.0178C20.8266 15.5157 20.6716 15.6732 20.6716 15.8673V18.7032C20.6716 18.8974 20.8266 19.0548 21.0178 19.0548Z" fill="white"/>
<path d="M6.01776 9.1642H8.3255C8.51666 9.1642 8.67163 9.00679 8.67163 8.81264V5.97675C8.67163 5.78259 8.51666 5.62518 8.3255 5.62518H6.01776C5.82661 5.62518 5.67163 5.78259 5.67163 5.97675V8.81264C5.67163 9.00679 5.82661 9.1642 6.01776 9.1642Z" fill="white"/>
<path d="M0.0463867 23.2969C0.0463867 23.6852 0.270241 24 0.546359 24H2.7964C2.93446 24 3.04639 23.8426 3.04639 23.6484V23.2969V5.97675C3.04639 5.78259 2.93446 5.62518 2.7964 5.62518H0.0463867L0.0463867 23.2969Z" fill="white"/>
<path d="M0.0463867 0.499978V3H2.7964C2.93446 3 3.04639 2.88807 3.04639 2.75001V0H0.546359C0.270241 0 0.0463867 0.223857 0.0463867 0.499978Z" fill="white"/>
<path d="M11.0178 19.0548H13.3255C13.5167 19.0548 13.6716 18.8974 13.6716 18.7032V15.8673C13.6716 15.6732 13.5167 15.5157 13.3255 15.5157H11.0178C10.8266 15.5157 10.6716 15.6732 10.6716 15.8673V18.7032C10.6716 18.8974 10.8266 19.0548 11.0178 19.0548Z" fill="white"/>
<path d="M21.0178 24H22.9794C23.3617 24 23.6716 23.6852 23.6716 23.2969V20.8126C23.6716 20.6184 23.5167 20.461 23.3255 20.461H21.0178C20.8266 20.461 20.6716 20.6184 20.6716 20.8126V23.6485C20.6716 23.8426 20.8266 24 21.0178 24Z" fill="white"/>
<path d="M16.0178 9.1642H18.3255C18.5167 9.1642 18.6716 9.00679 18.6716 8.81264V5.97675C18.6716 5.78259 18.5167 5.62518 18.3255 5.62518H16.0178C15.8266 5.62518 15.6716 5.78259 15.6716 5.97675V8.81264C15.6716 9.00679 15.8266 9.1642 16.0178 9.1642Z" fill="white"/>
<path d="M11.0178 24H13.3255C13.5167 24 13.6716 23.8426 13.6716 23.6485V20.8126C13.6716 20.6184 13.5167 20.461 13.3255 20.461H11.0178C10.8266 20.461 10.6716 20.6184 10.6716 20.8126V23.6485C10.6716 23.8426 10.8266 24 11.0178 24Z" fill="white"/>
<path d="M16.0178 24H18.3255C18.5167 24 18.6716 23.8426 18.6716 23.6485V20.8126C18.6716 20.6184 18.5167 20.461 18.3255 20.461H16.0178C15.8266 20.461 15.6716 20.6184 15.6716 20.8126V23.6485C15.6716 23.8426 15.8266 24 16.0178 24Z" fill="white"/>
<path d="M16.0178 19.0548H18.3255C18.5167 19.0548 18.6716 18.8974 18.6716 18.7032V15.8673C18.6716 15.6732 18.5167 15.5157 18.3255 15.5157H16.0178C15.8266 15.5157 15.6716 15.6732 15.6716 15.8673V18.7032C15.6716 18.8974 15.8266 19.0548 16.0178 19.0548Z" fill="white"/>
<path d="M16.0178 14.1095H18.3255C18.5167 14.1095 18.6716 13.952 18.6716 13.7579V10.922C18.6716 10.7278 18.5167 10.5704 18.3255 10.5704H16.0178C15.8266 10.5704 15.6716 10.7278 15.6716 10.922V13.7579C15.6716 13.952 15.8266 14.1095 16.0178 14.1095Z" fill="white"/>
</svg>
