<svg width="30" height="30" viewBox="0 0 48 56" fill="none" xmlns="http://www.w3.org/2000/svg">
<path fill-rule="evenodd" clip-rule="evenodd" d="M12.3872 23.2527C12.3872 17.12 17.3586 12.1486 23.4912 12.1486V0H19.6404C19.6099 0 19.5831 0.0204957 19.5752 0.0500288L18.8577 2.69978C18.6718 3.38647 18.0671 3.84786 17.3531 3.84786C16.9666 3.84786 16.6085 3.70875 16.3175 3.44569L14.2815 1.60431C14.2589 1.58398 14.2253 1.58123 14.1994 1.59769L7.72062 5.76138C7.69496 5.77801 7.6835 5.80964 7.6927 5.83885L8.52173 8.45584C8.67294 8.93289 8.59064 9.43753 8.29595 9.84002C7.9514 10.3101 7.36622 10.5529 6.78815 10.4565L4.07981 10.0083C4.05012 10.0033 4.01994 10.0192 4.00703 10.0469L0.807768 17.0524C0.79518 17.0803 0.802604 17.1131 0.826165 17.1326L2.93851 18.886C3.3573 19.2337 3.56113 19.7628 3.48366 20.3017C3.4062 20.8406 3.06149 21.2908 2.56168 21.5064L0.0408744 22.5937C0.0129551 22.6056 -0.00366735 22.6351 0.000689994 22.6655L1.09681 30.2886C1.10116 30.3189 1.12521 30.3423 1.15571 30.346L3.88067 30.6791C4.42082 30.7451 4.87834 31.08 5.10444 31.5751C5.33053 32.0704 5.28422 32.6356 4.98017 33.0871L3.44719 35.3647C3.43041 35.3901 3.43251 35.4236 3.45252 35.4467L8.49591 41.267C8.51576 41.2901 8.54868 41.2969 8.57627 41.2838L11.049 40.0907C11.264 39.9869 11.491 39.9343 11.7236 39.9343C12.1377 39.9343 12.5437 40.1063 12.8374 40.4062C13.1291 40.7043 13.2848 41.1004 13.2759 41.5218L13.2177 44.2665C13.217 44.297 13.237 44.3242 13.2664 44.3328L20.656 46.5026C20.6857 46.5111 20.7168 46.4992 20.7328 46.4731L22.1677 44.1327C22.4522 43.6687 22.9468 43.3918 23.4912 43.3918V34.3567C17.3586 34.3567 12.3872 29.3853 12.3872 23.2527Z" fill="white"/>
<path fill-rule="evenodd" clip-rule="evenodd" d="M21.8773 29.6589H23.6596V35.7065H23.6837L27.1999 29.6589H29.0789V38.54H27.2966V32.5287H27.2725L23.7624 38.54H21.8773V29.6589Z" fill="#D8D8D8"/>
<path fill-rule="evenodd" clip-rule="evenodd" d="M34.7804 32.6128C34.7804 38.7455 29.8088 43.7169 23.6763 43.7169V55.8656H27.5272C27.5575 55.8656 27.5843 55.8451 27.5924 55.8155L28.3097 53.1658C28.4958 52.4791 29.1005 52.0177 29.8145 52.0177C30.201 52.0177 30.5591 52.1568 30.8499 52.4199L32.8861 54.2612C32.9085 54.2816 32.9421 54.2843 32.9681 54.2679L39.447 50.1042C39.4725 50.0876 39.4841 50.0559 39.4749 50.0267L38.6457 47.4097C38.4946 46.9327 38.5768 46.428 38.8716 46.0255C39.216 45.5554 39.8012 45.3127 40.3793 45.4091L43.0878 45.8572C43.1173 45.8622 43.1476 45.8464 43.1606 45.8186L46.3598 38.8132C46.3722 38.7852 46.3648 38.7525 46.3414 38.733L44.2291 36.9795C43.8101 36.6319 43.6063 36.1027 43.6839 35.5639C43.7612 35.025 44.1059 34.5747 44.6059 34.3591L47.1267 33.2719C47.1546 33.26 47.1711 33.2304 47.1669 33.2001L46.0708 25.577C46.0664 25.5466 46.0422 25.5232 46.0119 25.5195L43.2869 25.1864C42.7466 25.1204 42.2891 24.7856 42.0632 24.2904C41.8371 23.7952 41.8834 23.23 42.1873 22.7784L43.7202 20.5008C43.7372 20.4755 43.7349 20.4419 43.7149 20.4189L38.6715 14.5986C38.6517 14.5755 38.6187 14.5687 38.5912 14.5818L36.1186 15.7749C35.9036 15.8787 35.6766 15.9313 35.4439 15.9313C35.0299 15.9313 34.6237 15.7592 34.3301 15.4594C34.0384 15.1613 33.8828 14.7651 33.8915 14.3437L33.9499 11.5991C33.9504 11.5686 33.9304 11.5413 33.9012 11.5328L26.5116 9.36297C26.4818 9.35441 26.4508 9.36636 26.4346 9.3925L24.9999 11.7329C24.7154 12.1969 24.2206 12.4738 23.6763 12.4738V21.5088C29.8088 21.5088 34.7804 26.4802 34.7804 32.6128Z" fill="#D8D8D8"/>
<path fill-rule="evenodd" clip-rule="evenodd" d="M11.7456 26.2195H20.9286V20.2856H11.7456V26.2195Z" fill="white"/>
<path fill-rule="evenodd" clip-rule="evenodd" d="M21.8773 20.2858H23.6516V23.7418L26.8994 20.2858H29.194L25.7263 23.7649L29.3962 28.7813H27.1479L24.5184 25.019L23.6516 25.9032V28.7813H21.8773V20.2858Z" fill="white"/>
</svg>
