<svg width="16" height="16" viewBox="0 0 16 16" fill="none" xmlns="http://www.w3.org/2000/svg">
<path d="M15.4102 6.08189C15.3571 5.90455 15.2156 5.77531 15.0453 5.74854L10.2612 4.9954L8.12163 0.299004C8.04549 0.13182 7.8883 0.0259914 7.71623 0.0259914C7.54412 0.0259914 7.38696 0.13182 7.3108 0.299004L5.17113 4.9954L0.387101 5.74854C0.216832 5.77531 0.0753191 5.90455 0.0221499 6.08186C-0.0310495 6.2592 0.0133185 6.45384 0.136566 6.58397L3.59823 10.2396L2.78116 15.4015C2.75205 15.5853 2.82179 15.7709 2.96102 15.8806C3.03977 15.9425 3.13306 15.9741 3.2268 15.9741C3.29878 15.9741 3.371 15.9555 3.43713 15.9178L7.7162 13.4807L11.9951 15.9178C12.1474 16.0045 12.332 15.9901 12.4712 15.8805C12.6104 15.7709 12.6802 15.5852 12.6511 15.4014L11.8338 10.2396L15.2959 6.58393C15.4191 6.45384 15.4635 6.2592 15.4102 6.08189Z" fill="white"/>
</svg>
